<svg width="1068" height="1051" viewBox="0 0 1068 1051" fill="none" xmlns="http://www.w3.org/2000/svg">
<path d="M940.689 789.449C899.131 762.429 885.219 738.935 893.689 667.449C860.422 637.444 856.663 611.17 859.189 558.449C870.77 496.651 886.751 474.248 921.189 441.949C869.657 412.164 852.261 384.317 829.689 326.449C819.044 250.809 832.618 222.436 877.189 186.449C859.63 167.366 850.023 158.111 833.189 143.449C772.92 96.6365 735.832 76.8153 660.189 59.9491C600.844 47.2851 564.279 43.6591 492.189 44.4491C420.861 46.5349 382.733 57.5196 318.189 94.9491C253.005 137.358 219.919 167.127 162.189 222.449C114.045 271.495 94.7209 299.484 76.6895 350.449C54.7018 417.241 45.6175 457.882 42.1895 542.949C42.5682 601.572 43.6687 629.123 59.1895 693.949C60.9683 710.523 71.1742 735.343 97.1895 778.449C113.985 806.988 137.496 839.495 172.189 877.449C244.228 941.66 293.401 964.119 396.189 980.949C548.266 1006.47 617.413 1012.19 683.689 991.949C801.108 956.489 885.689 880.449 940.689 789.449Z" fill="#F3EBDE"/>
<path d="M832.189 217.949C865.564 182.003 907.926 172.075 904.689 168.949C802.189 69.949 701.689 18.449 600.189 9.44939C483.26 -0.918279 368.672 -4.85595 222.189 101.949C75.7059 208.755 -3.81072 381.949 5.18915 566.449C12.0617 707.338 147.189 1013.45 472.689 1043.95C798.189 1074.45 965.189 801.449 965.189 801.449C958.515 803.569 954.367 804.517 945.689 805.449C934.116 805.408 927.215 804.208 914.689 801.449C896.703 794.086 888.155 787.765 874.689 773.949C866.504 759.187 862.765 750.645 867.189 731.949C870.647 721.762 873.416 715.149 879.189 702.449C868.681 695.641 862.653 691.232 851.689 682.449C835.672 667.156 828.209 656.173 817.189 632.949C810.291 605.12 811.559 589.085 820.189 559.949C829.35 538.117 836.851 524.89 854.689 499.449C822.822 478.978 808.126 462.036 786.189 424.449C776.516 393.341 773.619 373.965 778.189 331.949C775.166 332.297 798.815 253.894 832.189 217.949Z" stroke="#D3A993" stroke-width="9"/>
<path d="M835.689 270.449C826.357 271.119 822.568 273.465 819.689 282.949C822.145 293.068 825.263 296.425 835.689 295.949C845.679 295.45 848.987 293.055 850.189 284.449C849.001 273.519 844.599 271.952 835.689 270.449Z" fill="#F3EBDE"/>
<path d="M908.189 270.449C903.507 269.039 899.295 270.391 898.189 274.449C897.122 278.369 900.235 282.015 904.189 282.949C908.014 283.852 911.689 281.949 913.189 278.449C913.189 273.449 911.681 272.258 908.189 270.449Z" fill="#F3EBDE"/>
<path d="M901.689 309.949C898.178 308.981 896.412 309.25 893.689 311.449C892.16 313.692 891.999 315.206 893.189 318.449C896.067 319.219 897.708 319.237 900.689 318.449C903.55 315.735 903.689 313.855 901.689 309.949Z" fill="#F3EBDE"/>
<path d="M939.689 289.949C923.137 292.961 916.727 299.566 911.189 321.449C912.638 344.787 917.823 351.355 933.189 353.949C945.184 350.822 953.034 351.412 957.189 331.949C961.417 327.466 963.277 324.588 965.189 318.449C962.881 299.246 955.685 294.708 939.689 289.949Z" fill="#F3EBDE"/>
<path d="M924.189 195.949C915.145 197.093 912.011 199.887 909.189 207.949C911.642 215.95 914.324 218.497 921.189 219.949C928.992 218.109 932.055 215.989 934.189 209.449C934.54 200.695 932.137 197.914 924.189 195.949Z" fill="#F3EBDE"/>
<path d="M1007.19 297.449C998.522 297.783 991.689 301.949 992.189 309.449C992.689 316.949 997.83 319.378 1005.19 320.949C1012.26 319.425 1015.11 317.06 1018.19 309.949C1018.25 301.629 1014.4 300.03 1007.19 297.449Z" fill="#F3EBDE"/>
<path d="M835.689 381.449C831.565 382.963 830.437 384.722 829.189 388.449C830.094 391.51 831.048 392.669 834.189 392.949C836.94 391.743 838.313 390.758 840.189 387.949C840.705 383.494 839.295 382.429 835.689 381.449Z" fill="#F3EBDE"/>
<path d="M910.189 406.449C906.501 408.828 905.454 410.484 905.189 413.949C907.458 416.634 908.992 417.066 912.189 415.949C914.474 413.773 915.689 412.485 916.189 408.449C914.407 406.625 913.06 406.25 910.189 406.449Z" fill="#F3EBDE"/>
<path d="M975.689 375.949C971.36 376.533 969.578 377.908 967.689 382.449C968.557 385.279 969.561 386.355 972.189 387.449C975.586 386.46 977.114 385.359 979.189 382.449C979.59 379.21 978.518 377.907 975.689 375.949Z" fill="#F3EBDE"/>
<path d="M1035.19 376.949C1023.61 371.844 1017.27 371.872 1006.19 375.949C1004.92 383.897 1009.69 393.949 1010.19 394.449C1010.69 394.949 1017.26 408.279 1024.19 411.449C1031.22 410.359 1034.11 408.764 1037.69 404.449L1044.19 402.949C1047.65 401.788 1049.15 400.573 1050.69 396.949C1048.08 387.37 1045.1 382.777 1035.19 376.949Z" fill="#F3EBDE"/>
<path d="M952.689 670.949C949.989 671.207 948.997 674.243 949.189 676.949C949.386 679.717 950.927 682.713 953.689 682.449C956.39 682.191 957.382 679.155 957.189 676.449C956.993 673.681 955.452 670.685 952.689 670.949Z" fill="#F3EBDE"/>
<path d="M1000.69 659.449C992.929 660.557 980.325 671.039 980.689 680.949C981.138 693.134 993.778 699.528 1001.69 698.449C1013.61 696.823 1020.43 691.133 1021.19 679.949C1021.9 669.466 1013.37 657.638 1000.69 659.449Z" fill="#F3EBDE"/>
<path d="M861.689 414.449C848.528 415.883 844.293 420.893 841.689 436.449C847.603 451.746 852.93 457.547 868.189 459.949C885.836 452.694 892.416 447.07 891.189 430.949C886.616 417.696 880.062 414.177 861.689 414.449Z" fill="#F3EBDE"/>
<path d="M878.689 520.449C872.6 521.242 870.153 523.485 868.189 531.949C870.534 538.609 872.739 540.293 877.689 540.949C883.758 540.183 886.118 538.136 888.689 531.949C886.559 523.424 883.872 522.036 878.689 520.449Z" fill="#F3EBDE"/>
<path d="M986.189 514.449C980.157 515.907 977.905 518.543 976.189 526.949C979.456 533.753 981.952 535.572 987.689 534.949C992.036 533.007 994.174 531.404 996.189 525.449C995.055 518.815 992.835 516.431 986.189 514.449Z" fill="#F3EBDE"/>
<path d="M1050.19 536.949C1043.22 542.405 1031.94 546.677 1030.19 555.949C1029.37 560.299 1034 562.295 1038.69 563.449L1038.97 563.502C1049.86 565.564 1056.05 566.737 1063.69 562.449C1065.49 559.6 1066.26 557.475 1065.69 549.449C1065.28 546.843 1065.9 545.153 1067.69 541.949C1062.63 535.893 1058.49 535.502 1050.19 536.949Z" fill="#F3EBDE"/>
<path d="M945.189 553.949C935.438 556.746 937.272 585.766 939.689 585.949C943.086 592.548 958.656 602.049 965.189 601.449C978.374 599.349 983.238 595.239 984.189 578.949L975.189 563.449C975.206 558.942 973.865 558.827 972.189 555.949C970.514 553.071 954.94 551.152 945.189 553.949Z" fill="#F3EBDE"/>
<path d="M1018.69 576.949C1016.58 576.919 1014.14 579.393 1014.19 583.449C1014.19 583.449 1016.52 590.843 1018.69 588.449C1020.86 586.055 1021.65 584.611 1022.69 581.949C1022.5 579.792 1020.02 576.968 1018.69 576.949Z" fill="#F3EBDE"/>
<path d="M915.689 568.949C912.156 569.301 910.54 570.302 909.189 575.449C910.131 578.538 911.198 579.762 914.689 580.449C918.332 580.034 919.95 579.084 921.689 575.449C920.516 571.104 918.958 570.058 915.689 568.949Z" fill="#F3EBDE"/>
<path d="M936.189 594.449C934.132 595.231 933.364 596.179 933.189 599.449C933.773 601.604 933.115 603.153 936.189 604.449C937.929 604.384 938.823 603.571 940.189 599.949C939.397 594.776 938.348 594.252 936.189 594.449Z" fill="#F3EBDE"/>
<path d="M885.689 612.949C878.72 611.367 870.603 621.63 872.189 627.949C873.826 634.466 879.795 637.666 885.689 636.949C890.62 634.315 893.062 632.193 896.189 625.949C897.315 618.582 892.215 614.43 885.689 612.949Z" fill="#F3EBDE"/>
<path d="M1006.69 632.949C1004.5 634.223 1002.86 635.855 1003.19 638.449C1003.52 641.043 1004.98 643.341 1006.69 643.949C1009.3 644.88 1011.19 641.224 1011.19 638.449C1011.19 635.674 1008.88 631.675 1006.69 632.949Z" fill="#F3EBDE"/>
<path d="M356.578 478.483C356.578 495.736 401.047 523.681 411.982 547.981C416.599 556.486 420.487 566.449 420.487 576.169C420.487 599.74 399.832 616.021 380.149 616.021C348.316 616.021 334.951 592.45 334.951 563.047C334.951 556.729 335.437 542.392 344.185 542.392C349.288 542.392 353.905 547.495 353.905 552.598L353.419 565.963C353.419 573.496 357.55 591.235 365.569 593.908C367.27 594.637 374.317 596.824 376.261 596.824C389.383 596.824 401.047 589.777 401.047 575.44C401.047 562.075 385.495 544.336 377.233 534.373C361.681 515.905 336.652 504.97 336.652 476.782C336.652 455.155 352.933 434.5 375.532 434.5C399.346 434.5 415.384 453.454 415.384 476.539C415.384 483.586 412.954 486.502 405.664 486.502C401.29 486.502 400.075 484.315 399.103 480.427C397.159 473.38 394.729 467.305 391.813 460.744C388.411 455.641 381.364 453.697 375.046 453.697C361.924 453.697 356.578 467.305 356.578 478.483Z" fill="#B78E7A"/>
<path d="M264.485 612.862L251.12 612.619C239.456 612.619 231.437 614.563 231.437 599.011C231.437 588.805 232.409 578.356 232.409 567.907C232.409 553.084 231.68 538.018 231.68 523.195C231.68 511.774 232.652 500.353 232.652 488.932C232.652 476.053 230.951 463.66 230.951 450.781C230.951 440.089 235.568 438.145 246.26 438.145L262.541 438.388C271.532 438.388 280.766 437.416 289.757 437.416C295.346 437.416 299.477 441.547 301.907 446.164C301.907 451.996 299.234 455.884 293.159 455.884C281.495 455.884 269.588 455.155 257.924 455.155C255.494 455.155 253.307 455.155 250.877 455.398L250.391 510.802L274.934 511.288C279.308 511.288 285.14 515.419 285.14 520.279C285.14 526.354 282.467 529.027 276.392 529.027H251.12V577.141L251.363 594.88H256.223C266.186 594.88 276.392 594.151 286.355 594.151C294.374 594.151 299.963 596.095 299.963 605.329C299.963 608.002 297.047 612.376 294.131 612.376L283.196 612.133C276.878 612.133 270.803 612.862 264.485 612.862Z" fill="#B78E7A"/>
<path d="M179.503 438.145C185.821 438.145 197.971 439.36 197.971 448.108C197.971 450.538 196.027 456.856 192.868 456.856C186.064 456.856 179.503 456.127 172.699 456.127C167.839 456.127 162.736 456.37 157.876 456.127L157.633 482.614C157.633 497.194 157.633 511.531 158.362 525.868C158.605 532.915 159.82 540.205 159.82 547.009V597.067C159.82 606.058 155.689 613.591 147.913 613.834C144.025 613.834 139.894 610.918 139.894 606.787C139.894 598.282 141.109 589.534 141.109 580.786L140.866 565.477C140.623 547.981 139.408 530.485 139.165 512.989L138.922 489.661L139.165 455.641C134.305 456.127 132.604 456.37 130.903 456.37C124.828 456.37 119.482 456.856 115.108 456.856C105.874 456.856 102.715 455.155 101.5 444.22C105.145 440.089 109.519 437.902 114.136 437.902C120.697 437.902 126.286 438.874 131.389 438.874C147.427 438.874 163.465 438.145 179.503 438.145Z" fill="#B78E7A"/>
<path d="M737.5 535C743.65 535 748.853 536.985 751.638 542.025L751.656 542.058L751.675 542.09C753.568 545.147 755.05 548.611 755.05 551.95C755.05 553.417 754.71 555.223 753.971 556.605C753.247 557.961 752.282 558.7 751 558.7C749.828 558.7 748.722 558.09 747.864 557.051C746.998 556.003 746.501 554.648 746.5 553.45C746.5 551.397 746.448 548.844 745.473 546.804C744.963 545.735 744.189 544.776 743.042 544.1C741.906 543.43 740.51 543.1 738.851 543.1C736.804 543.1 734.056 543.542 731.763 544.657C729.475 545.77 727.3 547.751 727.3 550.9C727.3 553.117 728.082 555.364 729.225 557.494C730.374 559.635 731.943 561.756 733.642 563.743C736.614 567.218 740.086 570.401 742.662 572.695L743.707 573.623C750.459 579.625 755.8 585.226 755.8 594.1C755.8 599.805 754.733 604.892 752.241 608.512C749.812 612.039 745.909 614.35 739.75 614.35C728.453 614.35 719.05 606.201 719.05 594.85C719.05 593.131 719.401 591.018 720.221 589.395C721.024 587.805 722.137 586.9 723.701 586.9C726.243 586.9 728.05 589.129 728.05 591.85C728.05 594.985 728.22 598.577 729.611 601.4C730.327 602.854 731.378 604.133 732.898 605.036C734.41 605.935 736.283 606.4 738.55 606.4C741.273 606.4 743.463 605.028 745.002 603.206C746.53 601.399 747.496 599.072 747.833 596.878L747.854 596.746L747.85 596.612C747.683 589.942 743.107 584.648 738.313 580.061C737.097 578.896 735.84 577.754 734.61 576.636C733.375 575.513 732.166 574.414 731.021 573.314C728.727 571.111 726.767 568.976 725.447 566.794C724.432 565.055 723.332 563.018 722.099 561.168L722.087 561.15L722.075 561.133C720.808 559.344 719.924 557.968 719.338 556.496C718.765 555.053 718.451 553.446 718.451 551.2C718.451 546.45 719.602 542.262 723.214 539.677C727.034 536.989 732.886 535 737.5 535Z" fill="#B78E7A" stroke="#F3EBDE" stroke-width="3"/>
<path d="M676.25 593.64L675.951 548.64L675.941 547.15H674.451C672.491 547.15 670.103 547.065 668.235 546.409C667.319 546.088 666.631 545.664 666.178 545.139C665.75 544.643 665.451 543.966 665.451 542.95C665.451 542.743 665.539 542.285 665.8 541.623C666.048 540.996 666.404 540.303 666.821 539.661C667.242 539.013 667.69 538.47 668.103 538.108C668.442 537.812 668.648 537.73 668.721 537.708L668.75 537.7L674.562 537.85L676.371 537.896L676.082 536.11C675.202 530.685 675.05 525.084 675.05 519.4C675.05 518.549 675.273 517.275 675.65 515.947C676.025 514.625 676.509 513.406 676.947 512.656L677.111 512.374L677.143 512.049C677.152 511.964 677.228 511.722 677.719 511.444C678.198 511.174 678.875 511 679.55 511C680.724 511 682.088 511.348 683.113 512.002C684.113 512.64 684.651 513.458 684.651 514.45V528.429L684.652 528.457L684.952 536.406L685.009 537.928L686.53 537.848C689.491 537.692 692.197 537.4 695 537.4C696.174 537.4 697.692 537.955 698.925 538.932C700.164 539.913 700.851 541.099 700.851 542.2C700.851 543.449 700.477 544.173 699.99 544.617C699.535 545.032 698.823 545.349 697.789 545.465L697.326 545.502L687.73 545.951L686.3 546.019V548.701L686.408 548.781C686.411 548.881 686.414 548.997 686.415 549.13C686.418 549.791 686.393 550.741 686.344 551.917C686.247 554.262 686.06 557.419 685.854 560.771C685.444 567.428 684.951 574.914 684.951 578.05C684.951 583.793 684.802 586.651 684.691 588.557C684.593 590.245 684.518 591.273 684.607 592.885L684.655 593.615C684.884 596.674 685.428 599.698 686.643 602C687.906 604.394 689.968 606.099 693.05 606.1C695.584 606.1 697.305 605.025 698.544 603.504C699.668 602.125 700.436 600.31 701.124 598.86L701.537 598.172L701.555 598.142L701.572 598.111C702.539 596.315 703.648 595.3 705.201 595.3C706.731 595.3 707.51 595.827 707.978 596.507C708.515 597.287 708.8 598.503 708.8 600.1C708.8 608.708 701.545 614.65 693.05 614.65C690.447 614.65 687.476 613.739 684.773 612.202C682.074 610.668 679.778 608.585 678.44 606.383C676.431 602.885 676.25 598.053 676.25 593.65V593.64Z" fill="#B78E7A" stroke="#F3EBDE" stroke-width="3"/>
<path d="M639.201 536.2C642.823 536.2 645.576 537.144 647.698 538.664C649.833 540.194 651.429 542.379 652.607 545.008C654.983 550.31 655.55 557.167 655.55 563.2C655.55 569.808 655.1 576.741 655.554 583.55L655.555 583.56V583.571C655.999 589.051 656 594.391 656 599.95C656 605.879 653.809 609.34 650.515 611.411C647.091 613.564 642.263 614.35 636.8 614.35C626.705 614.35 617.451 606.352 617.451 596.05C617.451 586.843 622.05 577.535 630.695 574.516L630.727 574.505L630.757 574.493C632.829 573.664 635.223 573.234 637.814 572.84C640.345 572.455 643.093 572.101 645.607 571.394L646.701 571.087V569.95C646.701 567.595 646.815 562.484 646.434 557.608C646.244 555.17 645.925 552.726 645.386 550.67C644.87 548.7 644.067 546.739 642.666 545.661L642.388 545.448L642.044 545.379C641.373 545.244 640.588 545.05 639.651 545.05C635.07 545.05 631.923 547.587 629.464 549.781C628.183 550.924 627.153 551.914 626.088 552.664C625.054 553.393 624.176 553.75 623.3 553.75C621.882 553.75 621.285 553.257 620.934 552.666C620.494 551.923 620.3 550.767 620.3 549.25C620.3 545.774 622.989 542.529 627.03 540.047C631.019 537.596 635.85 536.2 639.201 536.2ZM645.095 580.603C640.736 580.909 636.091 581.796 632.497 584.055C628.794 586.383 626.3 590.116 626.3 595.75C626.3 601.96 631.936 605.5 637.25 605.5C638.711 605.5 640.075 605.519 641.231 605.45C642.382 605.381 643.515 605.219 644.493 604.756C645.54 604.26 646.326 603.459 646.815 602.309C647.276 601.224 647.451 599.884 647.451 598.3C647.451 595.539 647.259 592.787 647.072 590.096C646.884 587.388 646.701 584.739 646.701 582.1V580.491L645.095 580.603Z" fill="#B78E7A" stroke="#F3EBDE" stroke-width="3"/>
<path d="M586.801 534.85C594.513 534.85 598.742 536.734 601.364 539.991C603.92 543.166 605.176 547.892 606.128 554.421L606.315 555.751C606.921 560.447 607.651 565.424 607.651 570.1C607.651 570.903 607.049 571.971 605.709 572.93C604.414 573.858 602.727 574.45 601.202 574.45C600.312 574.45 599.433 574.291 598.4 574.1C597.409 573.917 596.261 573.7 595.051 573.7C589.46 573.7 583.433 573.396 577.75 574.164L576.419 574.343L576.452 575.686L576.751 588.136C576.756 593.593 577.828 597.98 580.621 600.989C583.442 604.029 587.724 605.35 593.401 605.35C595.111 605.35 596.454 605.128 597.472 604.596C598.581 604.018 599.162 603.152 599.459 602.23C599.715 601.438 599.778 600.504 599.848 599.916C599.93 599.232 600.037 598.709 600.279 598.249L600.363 598.089L600.407 597.914C601.065 595.28 603.208 593.05 605.551 593.05C606.467 593.05 607.179 593.595 607.743 594.768C608.313 595.955 608.551 597.482 608.551 598.6C608.551 604.24 606.954 608.008 604.257 610.396C601.526 612.815 597.408 614.05 591.901 614.05C587.327 614.05 583.338 613.323 579.951 611.638C576.587 609.965 573.728 607.304 571.465 603.277C570.489 601.49 569.719 598.95 569.133 595.905C568.551 592.879 568.167 589.45 567.917 585.949C567.415 578.944 567.452 571.763 567.452 567.1C567.452 559.267 567.768 551.128 570.388 544.961C571.681 541.917 573.512 539.419 576.094 537.672C578.674 535.927 582.125 534.85 586.801 534.85ZM587.851 543.4C586.817 543.4 585.337 543.478 583.921 543.816C582.656 544.118 581.134 544.7 580.185 545.917L580.025 546.137C576.932 550.532 576.301 554.477 576.301 559.45C576.301 561.092 576.3 562.658 576.458 564.386L576.58 565.732L577.931 565.75L589.181 565.9H597.965L597.9 564.337C597.828 562.606 597.787 558.381 597.368 554.417C597.158 552.434 596.846 550.436 596.364 548.791C596.122 547.968 595.825 547.183 595.446 546.515C595.074 545.86 594.563 545.208 593.845 544.797L593.809 544.777L593.772 544.758C592.052 543.898 589.87 543.4 587.851 543.4Z" fill="#B78E7A" stroke="#F3EBDE" stroke-width="3"/>
<path d="M542.3 535.3C547.815 535.3 554.22 538.953 557.942 543.28C557.945 543.288 557.948 543.298 557.951 543.308C557.99 543.436 558.035 543.597 558.077 543.764C558.119 543.931 558.154 544.091 558.178 544.216C558.189 544.27 558.195 544.311 558.199 544.339C558.185 545.192 557.742 546.162 556.953 546.951C556.151 547.753 555.162 548.2 554.3 548.2C552.618 548.2 551.222 547.376 549.372 546.534L549.362 546.531L549.352 546.526L548.436 546.128C546.22 545.181 543.482 544.15 540.8 544.15C539.404 544.15 538.197 544.382 537.189 544.894C536.158 545.417 535.424 546.19 534.925 547.111C533.988 548.842 533.901 551.094 533.901 553.15V561.25C533.901 565.772 534.014 570.254 534.126 574.713C534.239 579.179 534.351 583.622 534.351 588.1C534.351 594.876 534.345 601.768 533.033 608.191C532.763 609.472 532.321 610.457 531.727 611.104C531.178 611.702 530.421 612.1 529.25 612.1C528.096 612.1 527.318 611.809 526.765 611.408C526.2 610.999 525.758 610.392 525.421 609.589C524.725 607.926 524.601 605.726 524.601 603.7C524.601 598.695 524.713 593.724 524.826 588.734C524.938 583.749 525.05 578.745 525.05 573.7C525.05 570.212 524.899 566.729 524.75 563.284C524.599 559.829 524.451 556.412 524.451 553C524.451 547.485 526.246 543.092 529.292 540.079C532.341 537.065 536.776 535.3 542.3 535.3Z" fill="#B78E7A" stroke="#F3EBDE" stroke-width="3"/>
<path d="M482.59 593.64L482.29 548.64L482.28 547.15H480.79C478.831 547.15 476.443 547.065 474.574 546.409C473.658 546.088 472.971 545.664 472.518 545.139C472.09 544.643 471.79 543.966 471.79 542.95C471.79 542.743 471.878 542.285 472.14 541.623C472.387 540.996 472.744 540.303 473.16 539.661C473.581 539.013 474.03 538.47 474.442 538.108C474.781 537.812 474.987 537.73 475.061 537.708L475.09 537.7L480.901 537.85L482.71 537.896L482.421 536.11C481.541 530.685 481.39 525.084 481.39 519.4C481.39 518.549 481.612 517.275 481.989 515.947C482.365 514.625 482.849 513.406 483.286 512.656L483.45 512.374L483.482 512.049C483.491 511.964 483.567 511.722 484.059 511.444C484.538 511.174 485.215 511 485.89 511C487.064 511 488.427 511.348 489.452 512.002C490.452 512.64 490.99 513.458 490.99 514.45V528.429L490.991 528.457L491.291 536.406L491.349 537.928L492.869 537.848C495.83 537.692 498.536 537.4 501.34 537.4C502.513 537.4 504.031 537.955 505.265 538.932C506.503 539.913 507.19 541.099 507.19 542.2C507.19 543.449 506.816 544.173 506.329 544.617C505.874 545.032 505.162 545.349 504.128 545.465L503.665 545.502L494.069 545.951L492.64 546.019V549.4L492.747 549.48C492.75 549.572 492.753 549.678 492.754 549.799C492.758 550.439 492.733 551.362 492.684 552.505C492.586 554.784 492.4 557.854 492.193 561.118C491.784 567.601 491.29 574.913 491.29 578.05C491.29 583.793 491.141 586.651 491.03 588.557C490.932 590.245 490.857 591.273 490.946 592.885L490.994 593.615C491.224 596.674 491.768 599.698 492.982 602C494.246 604.394 496.307 606.099 499.39 606.1C501.923 606.1 503.644 605.025 504.884 603.504C506.008 602.125 506.775 600.31 507.463 598.86L507.876 598.172L507.895 598.142L507.911 598.111C508.878 596.315 509.987 595.3 511.54 595.3C513.07 595.3 513.849 595.827 514.317 596.507C514.854 597.287 515.14 598.503 515.14 600.1C515.14 608.708 507.884 614.65 499.39 614.65C496.786 614.65 493.815 613.739 491.112 612.202C488.414 610.668 486.117 608.585 484.779 606.383C482.77 602.885 482.59 598.053 482.59 593.65V593.64Z" fill="#B78E7A" stroke="#F3EBDE" stroke-width="3"/>
</svg>
