<svg width="697" height="182" viewBox="0 0 697 182" fill="none" xmlns="http://www.w3.org/2000/svg">
<path d="M255.078 43.983C255.078 61.236 299.547 89.181 310.482 113.481C315.099 121.986 318.987 131.949 318.987 141.669C318.987 165.24 298.332 181.521 278.649 181.521C246.816 181.521 233.451 157.95 233.451 128.547C233.451 122.229 233.937 107.892 242.685 107.892C247.788 107.892 252.405 112.995 252.405 118.098L251.919 131.463C251.919 138.996 256.05 156.735 264.069 159.408C265.77 160.137 272.817 162.324 274.761 162.324C287.883 162.324 299.547 155.277 299.547 140.94C299.547 127.575 283.995 109.836 275.733 99.873C260.181 81.405 235.152 70.47 235.152 42.282C235.152 20.655 251.433 0 274.032 0C297.846 0 313.884 18.954 313.884 42.039C313.884 49.086 311.454 52.002 304.164 52.002C299.79 52.002 298.575 49.815 297.603 45.927C295.659 38.88 293.229 32.805 290.313 26.244C286.911 21.141 279.864 19.197 273.546 19.197C260.424 19.197 255.078 32.805 255.078 43.983Z" fill="#77553D"/>
<path d="M162.985 178.362L149.62 178.119C137.956 178.119 129.937 180.063 129.937 164.511C129.937 154.305 130.909 143.856 130.909 133.407C130.909 118.584 130.18 103.518 130.18 88.695C130.18 77.274 131.152 65.853 131.152 54.432C131.152 41.553 129.451 29.16 129.451 16.281C129.451 5.58903 134.068 3.64502 144.76 3.64502L161.041 3.88802C170.032 3.88802 179.266 2.91602 188.257 2.91602C193.846 2.91602 197.977 7.04702 200.407 11.664C200.407 17.496 197.734 21.384 191.659 21.384C179.995 21.384 168.088 20.655 156.424 20.655C153.994 20.655 151.807 20.655 149.377 20.898L148.891 76.302L173.434 76.788C177.808 76.788 183.64 80.919 183.64 85.779C183.64 91.854 180.967 94.527 174.892 94.527H149.62V142.641L149.863 160.38H154.723C164.686 160.38 174.892 159.651 184.855 159.651C192.874 159.651 198.463 161.595 198.463 170.829C198.463 173.502 195.547 177.876 192.631 177.876L181.696 177.633C175.378 177.633 169.303 178.362 162.985 178.362Z" fill="#77553D"/>
<path d="M78.003 3.64485C84.321 3.64485 96.471 4.85985 96.471 13.6079C96.471 16.0379 94.527 22.3558 91.368 22.3558C84.564 22.3558 78.003 21.6269 71.199 21.6269C66.339 21.6269 61.236 21.8699 56.376 21.6269L56.133 48.1138C56.133 62.6939 56.133 77.0309 56.862 91.3679C57.105 98.4149 58.32 105.705 58.32 112.509V162.567C58.32 171.558 54.189 179.091 46.413 179.334C42.525 179.334 38.394 176.418 38.394 172.287C38.394 163.782 39.609 155.034 39.609 146.286L39.366 130.977C39.123 113.481 37.908 95.9848 37.665 78.4888L37.422 55.1609L37.665 21.1408C32.805 21.6269 31.104 21.8699 29.403 21.8699C23.328 21.8699 17.982 22.3558 13.608 22.3558C4.374 22.3558 1.215 20.6549 0 9.71985C3.645 5.58886 8.019 3.40186 12.636 3.40186C19.197 3.40186 24.786 4.37384 29.889 4.37384C45.927 4.37384 61.965 3.64485 78.003 3.64485Z" fill="#77553D"/>
<path d="M688.982 117.831C685.046 117.831 682.138 113.724 682.138 110.131C682.138 105.341 681.796 100.037 675.123 100.037C670.845 100.037 663.659 101.919 663.659 107.223C663.659 115.778 675.807 126.557 681.796 131.861C689.495 138.705 696.168 145.548 696.168 156.499C696.168 169.844 691.206 181.308 676.149 181.308C662.462 181.308 650.827 171.384 650.827 157.354C650.827 153.077 652.538 146.575 657.842 146.575C661.948 146.575 664.515 150.168 664.515 153.932C664.515 161.118 665.37 168.818 674.781 168.818C679.742 168.818 682.993 163.856 683.678 159.407C683.335 145.72 664.857 136.994 658.355 126.215C657.158 124.161 655.96 121.937 654.591 119.884C651.682 115.778 650.143 113.04 650.143 107.565C650.143 101.919 651.511 96.4436 656.302 93.0217C660.922 89.7708 667.937 87.3755 673.583 87.3755C680.94 87.3755 687.613 89.7708 691.206 96.2725C693.43 99.8656 695.312 104.143 695.312 108.42C695.312 112.185 693.601 117.831 688.982 117.831Z" fill="#77553D"/>
<path d="M631.094 160.263C632.292 158.039 634.003 156.157 636.74 156.157C641.189 156.157 642.557 159.407 642.557 163.343C642.557 174.293 633.318 181.65 622.881 181.65C616.209 181.65 608.167 177.03 604.745 171.384C602.179 166.936 602.007 160.947 602.007 155.985L601.665 104.656C597.217 104.656 589.688 104.314 589.688 98.1546C589.688 95.9304 592.768 90.4553 595.164 90.4553L601.836 90.6264C600.81 84.2958 600.639 77.7941 600.639 71.2924C600.639 68.897 601.836 64.7907 603.034 62.7376C603.205 61.0266 605.429 60 607.483 60C610.733 60 615.011 61.8821 615.011 65.6462V81.5582L615.353 90.6264C618.604 90.4553 621.855 90.1131 625.106 90.1131C628.699 90.1131 633.489 93.3639 633.489 97.2992C633.489 100.892 631.265 102.603 627.843 102.774L616.893 103.288V103.859C617.577 104.372 615.353 131.176 615.353 138.191C615.353 151.366 614.669 151.366 615.011 155.814C615.524 162.658 617.406 168.476 622.881 168.476C627.501 168.476 628.87 164.711 630.581 161.118L631.094 160.263Z" fill="#77553D"/>
<path d="M581.818 121.253C581.818 128.952 581.305 136.652 581.818 144.351C582.331 150.682 582.331 156.841 582.331 163.172C582.331 177.715 571.381 181.308 558.72 181.308C546.401 181.308 534.938 171.556 534.938 158.723C534.938 147.773 540.413 136.31 551.192 132.545C556.325 130.492 562.826 130.492 568.301 128.952C568.301 123.477 568.815 106.025 564.366 102.603C563.511 102.432 562.826 102.261 561.971 102.261C552.903 102.261 549.31 112.185 543.321 112.185C539.044 112.185 538.188 108.934 538.188 105.341C538.188 95.5885 553.074 88.7446 561.458 88.7446C579.252 88.7446 581.818 107.394 581.818 121.253ZM559.233 167.791C566.077 167.791 569.157 168.134 569.157 161.29C569.157 155.13 568.301 148.971 568.301 142.811C558.549 143.496 548.454 146.747 548.454 158.381C548.454 164.198 553.758 167.791 559.233 167.791Z" fill="#77553D"/>
<path d="M523.076 153.59C527.011 153.59 528.209 158.723 528.209 161.632C528.209 175.148 520.509 180.966 507.506 180.966C496.727 180.966 488.172 177.544 482.697 167.791C477.735 158.723 477.906 136.309 477.906 125.701C477.906 107.907 479.275 87.2046 501.688 87.2046C519.825 87.2046 523.418 96.1016 525.642 112.527C526.326 117.831 527.182 123.648 527.182 129.123C527.182 132.545 522.391 135.796 518.114 135.796C515.718 135.796 513.494 134.941 511.099 134.941C504.597 134.941 497.924 134.598 491.594 135.454L491.936 149.655C491.936 161.803 496.727 167.62 509.217 167.62C516.574 167.62 513.836 163.685 515.547 160.434C516.403 157.012 519.311 153.59 523.076 153.59ZM502.886 100.379C500.662 100.379 496.727 100.721 495.358 102.774C492.107 107.394 491.423 111.5 491.423 116.975C491.423 118.858 491.423 120.569 491.594 122.451L504.426 122.622H512.639C512.468 118.515 512.468 103.801 508.875 101.748C507.164 100.892 504.939 100.379 502.886 100.379Z" fill="#77553D"/>
<path d="M470.263 97.6409C470.434 97.9831 470.776 99.3519 470.776 99.6941C470.776 102.774 467.696 105.854 464.617 105.854C462.221 105.854 460.168 104.656 458.286 103.8C455.549 102.603 452.298 101.234 449.218 101.234C443.572 101.234 443.058 104.998 443.058 109.789V119.028C443.058 129.294 443.572 139.389 443.572 149.654C443.572 157.354 443.572 165.395 442.032 172.924C441.348 176.174 439.637 178.741 436.043 178.741C429.542 178.741 429.029 172.068 429.029 167.449C429.029 155.985 429.542 144.693 429.542 133.229C429.542 125.359 428.857 117.488 428.857 109.618C428.857 96.2721 437.583 87.7173 450.929 87.7173C457.944 87.7173 465.814 92.3369 470.263 97.6409Z" fill="#77553D"/>
<path d="M410.196 160.263C411.393 158.039 413.104 156.157 415.842 156.157C420.29 156.157 421.659 159.407 421.659 163.343C421.659 174.293 412.42 181.65 401.983 181.65C395.31 181.65 387.269 177.03 383.847 171.384C381.28 166.936 381.109 160.947 381.109 155.985L380.767 104.656C376.318 104.656 368.79 104.314 368.79 98.1546C368.79 95.9304 371.87 90.4553 374.265 90.4553L380.938 90.6264C379.911 84.2958 379.74 77.7941 379.74 71.2924C379.74 68.897 380.938 64.7907 382.136 62.7376C382.307 61.0266 384.531 60 386.584 60C389.835 60 394.112 61.8821 394.112 65.6462V81.5582L394.455 90.6264C397.705 90.4553 400.956 90.1131 404.207 90.1131C407.8 90.1131 412.591 93.3639 412.591 97.2992C412.591 100.892 410.367 102.603 406.945 102.774L395.994 103.288V104.656C396.679 105.17 394.455 131.176 394.455 138.191C394.455 151.366 393.77 151.366 394.112 155.814C394.626 162.658 396.508 168.476 401.983 168.476C406.602 168.476 407.971 164.711 409.682 161.118L410.196 160.263Z" fill="#77553D"/>
</svg>
